<svg xmlns="http://www.w3.org/2000/svg" viewBox="0 0 64 64" width="64" height="64">
  <!-- Fondo gradiente -->
  <defs>
    <linearGradient id="bg" x1="0%" y1="0%" x2="100%" y2="100%">
      <stop offset="0%" style="stop-color:#667eea"/>
      <stop offset="100%" style="stop-color:#764ba2"/>
    </linearGradient>
  </defs>
  <rect width="64" height="64" rx="16" fill="url(#bg)"/>

  <!-- Cabeza robot -->
  <rect x="17" y="24" width="30" height="26" rx="8" fill="white"/>

  <!-- Ojos pantalla -->
  <rect x="22" y="30" width="8" height="6" rx="2" fill="#667eea"/>
  <rect x="34" y="30" width="8" height="6" rx="2" fill="#667eea"/>

  <!-- Boca -->
  <rect x="26" y="42" width="12" height="3" rx="1.5" fill="#667eea"/>

  <!-- Birrete -->
  <polygon points="12,24 32,16 52,24 32,32" fill="#2D3436" opacity="0.9"/>
  <line x1="52" y1="24" x2="54" y2="32" stroke="#FDCB6E" stroke-width="2"/>
  <circle cx="54" cy="33" r="2" fill="#FDCB6E"/>

  <!-- Antena -->
  <line x1="32" y1="18" x2="32" y2="12" stroke="white" stroke-width="2"/>
  <circle cx="32" cy="10" r="2.5" fill="#FDCB6E"/>

  <!-- Orejas/sensores -->
  <rect x="12" y="32" width="5" height="8" rx="2" fill="white" opacity="0.8"/>
  <rect x="47" y="32" width="5" height="8" rx="2" fill="white" opacity="0.8"/>
</svg>
